HIERARCHY
ROOT Hips
{
	OFFSET	0.00	0.00	0.00
	CHANNELS 6 Xposition Yposition Zposition Zrotation Xrotation Yrotation
	JOINT Spine
	{
		OFFSET	 0.00	0.01	 0.00
		CHANNELS 3 Zrotation Xrotation Yrotation
		JOINT Spine1
		{
			OFFSET	 0.00	 2.45913012437421	 0.00
			CHANNELS 3 Zrotation Xrotation Yrotation
            JOINT Neck
            {
                OFFSET	 0.00	 2.48462964506057	 0.00
                CHANNELS 3 Zrotation Xrotation Yrotation
                JOINT Head
                {
                    OFFSET	 0.00	 0.927524780924562	 0.00
                    CHANNELS 3 Zrotation Xrotation Yrotation
                    End Site 
                    {
                        OFFSET	 0.00	 1.14999962169752	 0.00
                    }
                }
            }
			JOINT LeftShoulder
			{
				OFFSET	 0.00	 2.48462964506057	 0.00
				CHANNELS 3 Zrotation Xrotation Yrotation
				JOINT LeftUpArm
				{
					OFFSET	 0.00	 1.24881979654096	 0.00
					CHANNELS 3 Zrotation Xrotation Yrotation
					JOINT LeftForeArm
					{
						OFFSET	 0.00	2.59758046908119	 0.00
						CHANNELS 3 Zrotation Xrotation Yrotation
						JOINT LeftHand
						{
							OFFSET	 0.00	2.45542024364365	 0.00
							CHANNELS 3 Zrotation Xrotation Yrotation
							JOINT LeftHandThumb 
							{
								OFFSET	 0.00	0.00	 0.00
								CHANNELS 3 Zrotation Xrotation Yrotation
								End Site
								{
									OFFSET	 0.00	0.00	1.00000003353624
								}
							}
							JOINT L_Wrist_End 
							{
								OFFSET	 0.00	0.99999967115358	 0.00
								CHANNELS 3 Zrotation Xrotation Yrotation
								End Site 
								{
									OFFSET	 0.00	 0.00	 0.00
								}
							}
						}
					}
				}
			}
			JOINT RightShoulder
			{
				OFFSET	 0.00	 2.48462964506057	 0.00
				CHANNELS 3 Zrotation Xrotation Yrotation
				JOINT RightUpArm
				{
					OFFSET	 0.00	 1.24881979654096	 0.00
					CHANNELS 3 Zrotation Xrotation Yrotation
					JOINT RightForeArm
					{
						OFFSET	 0.00	2.59758046908119	 0.00
						CHANNELS 3 Zrotation Xrotation Yrotation
						JOINT RightHand
						{
							OFFSET	 0.00	2.45542024364365	 0.00
							CHANNELS 3 Zrotation Xrotation Yrotation
							JOINT RightHandThumb 
							{
								OFFSET	 0.00	0.00	 0.00
								CHANNELS 3 Zrotation Xrotation Yrotation
								End Site
								{
									OFFSET	 0.00	0.00	1.00000003353624
								}
							}
							JOINT R_Wrist_End 
							{
								OFFSET	 0.00	0.99999967115358	 0.00
								CHANNELS 3 Zrotation Xrotation Yrotation
								End Site 
								{
									OFFSET	 0.00	 0.00	 0.00
								}
							}
						}
					}
				}
			}
		}
	}
	JOINT LeftUpLeg
	{
		OFFSET	 1.2719394002717	 0.00	 0.00
		CHANNELS 3 Zrotation Xrotation Yrotation
		JOINT LeftLowLeg
		{
			OFFSET	 0.00	-4.3429100912261	 0.00
			CHANNELS 3 Zrotation Xrotation Yrotation
			JOINT LeftFoot
			{
				OFFSET	 0.00	-4.48767017425826	 0.00
				CHANNELS 3 Zrotation Xrotation Yrotation
				JOINT LeftToeBase
                {
                    OFFSET	 0.00	0.00	 1.51507020887566
                    CHANNELS 3 Zrotation Xrotation Yrotation
                    End Site 
                    {
                        OFFSET	 0.00	0.00	 0.75000010571191
                    }
                }
			}
		}
	}
	JOINT RightUpLeg
	{
		OFFSET	 -1.2719393604653	 0.00	 0.00
		CHANNELS 3 Zrotation Xrotation Yrotation
		JOINT RightLowLeg
		{
			OFFSET	 0.00	-4.3429100912261	 0.00
			CHANNELS 3 Zrotation Xrotation Yrotation
			JOINT RightFoot
			{
				OFFSET	 0.00	-4.48767017425826	 0.00
				CHANNELS 3 Zrotation Xrotation Yrotation
				JOINT RightToeBase
                {
                    OFFSET	 0.00	0.00	 1.51507020887566
                    CHANNELS 3 Zrotation Xrotation Yrotation
                    End Site 
                    {
                        OFFSET	 0.00	0.00	 0.749999965609858
                    }
                }   
			}
		}
	}
}
MOTION 
Frames:	13 
Frame Time: 0.02 
  -2.6204098510742186 0.28262800216674805 5.191810302734375 126.555 82.9949 253.268 4.68763 -22.6 -0.871335 -0.461736 6.08175 -3.43055 -40.7751 64.1022 38.0869 -68.3058 -55.842 -50.0124 -109.4953 -0.495671 4.24701 42.2573 37.4527 -392.967 0.0 103.332 0.0 36.7375 43.7339 28.3679 0.0 0.0 0.0 0.0 0.0 0.0 115.4986 -0.532799 -9.25736 46.9641 37.858 -393.028 0.0 111.986 0.0 -71.5778 21.4825 -27.7893 0.0 0.0 0.0 0.0 0.0 0.0 -40.1839 -64.9276 -39.8351 0.0 124.04 0.0 -8.04383 -25.4258 -8.98715 0.0 -26.7908 0.0 -1.14925 -9.70056 350.264 0.0 113.613 0.0 11.9459 -16.391 16.534 0.0 -58.3171 0.0 
  -2.6256201171875 0.2617289924621582 5.189299926757813 126.426 83.0834 253.354 4.72921 -23.2856 -0.992466 -0.264803 5.91077 -3.54568 -41.5781 64.3378 38.7799 -67.8983 -55.6866 -49.4509 -109.4483 -0.434948 4.10034 41.2491 37.1744 -392.454 0.0 104.587 0.0 36.4073 43.9171 28.7399 0.0 0.0 0.0 0.0 0.0 0.0 115.6881 -0.857071 -9.27392 46.5609 37.449 -393.737 0.0 113.256 0.0 -71.8256 21.8844 -28.7167 0.0 0.0 0.0 0.0 0.0 0.0 -39.3883 -64.814 -39.1292 0.0 124.145 0.0 -8.00994 -25.729698 -8.98358 0.0 -26.8071 0.0 -0.890167 -9.31983 350.258 0.0 113.198 0.0 11.4913 -16.709 16.1654 0.0 -58.842 0.0 
  -2.6314300537109374 0.2424810028076172 5.1866998291015625 125.166 83.1425 254.552 4.68798 -23.7604 -1.12525 -0.110563 5.76182 -3.6187 -42.1296 64.497 39.3138 -67.8316 -55.693 -49.2149 -109.5895 -0.304925 4.06486 40.8375 36.6482 -392.16 0.0 105.632 0.0 37.4986 44.0483 27.8844 0.0 0.0 0.0 0.0 0.0 0.0 115.7763 -1.3326 -9.21324 46.4423 37.3804 -394.984 0.0 114.252 0.0 -74.0254 23.6514 -34.8167 0.0 0.0 0.0 0.0 0.0 0.0 -38.5125 -64.6403 -38.3013 0.0 124.235 0.0 -8.00437 -25.9393 -9.07544 0.0 -26.883701 0.0 -0.653024 -8.77207 350.319 0.0 112.777 0.0 11.269 -17.173801 15.9939 0.0 -59.1067 0.0 
  -2.638219909667969 0.2256920051574707 5.18583984375 124.272 83.2416 255.286 4.75533 -24.1817 -1.14994 0.0445879 5.50674 -3.66769 -42.7558 64.6944 39.8969 -67.7525 -55.6788 -49.1053 -109.7117 -0.172292 4.1929 40.3754 36.0762 -392.046 0.0 106.544 0.0 37.4878 44.1423 27.2629 0.0 0.0 0.0 0.0 0.0 0.0 115.8994 -1.54034 -9.17856 46.0857 36.9677 -395.505 0.0 115.371 0.0 -74.319 23.9722 -33.9881 0.0 0.0 0.0 0.0 0.0 0.0 -37.5933 -64.6028 -37.5013 0.0 124.363 0.0 -8.07542 -25.9679 -9.28066 0.0 -27.022999 0.0 -0.421652 -8.4365 350.471 0.0 112.523 0.0 11.463 -17.2184 16.1603 0.0 -59.175 0.0 
  -2.644209899902344 0.21079299926757813 5.18427001953125 123.252 83.3507 256.07 4.80379 -24.4943 -1.0776 0.307324 5.24525 -3.58372 -42.9618 64.8219 40.0562 -67.6281 -55.6722 -48.9624 -109.7783 -0.00265225 4.19843 39.8694 35.7417 -391.936 0.0 107.259 0.0 37.3622 44.4143 26.8866 0.0 0.0 0.0 0.0 0.0 0.0 115.9228 -1.84901 -9.15505 45.738 36.6079 -395.65 0.0 116.417 0.0 -74.2613 24.0392 -33.3444 0.0 0.0 0.0 0.0 0.0 0.0 -36.7103 -64.6607 -36.7287 0.0 124.572 0.0 -8.01199 -25.784801 -9.38747 0.0 -27.3925 0.0 -0.193318 -8.21114 350.672 0.0 112.412 0.0 11.42 -17.196701 16.0735 0.0 -59.1858 0.0 
  -2.649800109863281 0.19643499374389647 5.1831298828125 120.901 83.4793 258.172 4.85664 -24.7126 -1.04846 0.526946 5.18264 -3.56698 -43.4078 64.7456 40.6452 -67.5733 -55.7333 -49.0325 -109.8184 0.0678336 4.13673 39.5146 35.3752 -391.898 0.0 107.755 0.0 37.5768 44.6151 26.5814 0.0 0.0 0.0 0.0 0.0 0.0 115.9008 -1.93677 -9.17764 45.4116 36.2468 -395.552 0.0 117.343 0.0 -74.2372 24.43 -32.7025 0.0 0.0 0.0 0.0 0.0 0.0 -35.6788 -64.5996 -35.7802 0.0 124.775 0.0 -8.029 -25.5434 -9.55754 0.0 -27.8196 0.0 0.0162317 -7.87435 350.835 0.0 112.336 0.0 11.1788 -17.1945 15.7355 0.0 -59.1466 0.0 
  -2.6547500610351564 0.18201400756835937 5.182589721679688 118.073 83.6119 260.822 5.01308 -24.9447 -1.00531 0.539014 5.22315 -3.64568 -43.3275 64.523 40.6748 -67.4219 -55.6983 -48.8366 -109.7091 0.0751022 3.96203 39.0822 35.1225 -391.721 0.0 107.976 0.0 37.5692 44.4746 25.9101 0.0 0.0 0.0 0.0 0.0 0.0 116.0565 -1.84218 -9.35428 44.8544 35.8806 -395.012 0.0 118.084 0.0 -74.0429 25.5155 -33.0182 0.0 0.0 0.0 0.0 0.0 0.0 -34.7817 -64.4553 -34.9654 0.0 124.971 0.0 -8.11727 -25.2706 -9.72716 0.0 -28.2323 0.0 0.212345 -7.44768 350.899 0.0 112.21 0.0 10.9435 -17.200298 15.3672 0.0 -59.3023 0.0 
  -2.6589801025390627 0.1683650016784668 5.181939697265625 115.463 83.6824 263.281 5.12965 -25.1972 -0.979378 0.555515 5.26937 -3.70595 -43.0657 64.2611 40.4884 -67.2725 -55.6072 -48.5613 -109.5953 0.0122133 3.87746 38.7719 34.9284 -391.684 0.0 107.927 0.0 37.4309 43.9416 25.5198 0.0 0.0 0.0 0.0 0.0 0.0 116.1098 -1.76535 -9.44492 44.5372 35.5826 -394.583 0.0 118.651 0.0 -74.2372 26.2467 -33.4854 0.0 0.0 0.0 0.0 0.0 0.0 -34.0994 -64.328 -34.3425 0.0 125.16 0.0 -8.11442 -24.9576 -9.82718 0.0 -28.6756 0.0 0.357036 -7.02927 350.892 0.0 112.093 0.0 10.6359 -17.3662 14.8409 0.0 -59.254 0.0 
  -2.6632199096679687 0.15580100059509278 5.181430053710938 112.669 83.6851 265.923 5.18229 -25.3409 -0.965028 0.628569 5.18513 -3.72171 -43.1313 64.1351 40.5811 -67.2683 -55.5211 -48.4569 -109.7154 -0.00784052 3.91288 38.871 34.5086 -391.562 0.0 107.575 0.0 38.2574 43.7957 24.8558 0.0 0.0 0.0 0.0 0.0 0.0 116.1637 -1.70908 -9.49341 44.3119 35.3141 -394.268 0.0 119.082 0.0 -74.5407 26.4777 -33.9393 0.0 0.0 0.0 0.0 0.0 0.0 -33.4835 -64.1734 -33.7737 0.0 125.323 0.0 -8.27725 -24.622898 -10.1002 0.0 -29.0669 0.0 0.433898 -6.6195 350.855 0.0 112.019 0.0 10.4024 -17.468102 14.3558 0.0 -59.1893 0.0 
  -2.66614990234375 0.14299400329589843 5.1810400390625 110.649 83.6756 267.775 5.26567 -25.5666 -0.907429 0.752777 5.24438 -3.70758 -43.5938 63.801 41.214 -67.4015 -55.4004 -48.7053 -109.7509 -0.132011 3.81544 38.7697 34.3862 -391.594 0.0 107.172 0.0 38.295 44.1556 24.9267 0.0 0.0 0.0 0.0 0.0 0.0 115.9179 -1.35382 -8.29497 45.0402 33.7632 -394.753 0.0 119.595 0.0 -74.0538 26.8081 -34.4831 0.0 0.0 0.0 0.0 0.0 0.0 -32.9859 -64.0787 -33.3319 0.0 125.488 0.0 -8.46867 -24.2826 -10.3786 0.0 -29.440601 0.0 0.505588 -6.30512 350.804 0.0 111.932 0.0 10.4051 -17.457901 13.8922 0.0 -59.3876 0.0 
  -2.6680398559570313 0.12893300056457518 5.1836700439453125 108.843 83.7414 269.397 5.48373 -25.8274 -0.782712 0.781817 5.16316 -3.74529 -44.031 63.7487 41.6966 -67.4595 -55.349 -48.7537 -109.8144 -0.137899 3.7731 38.6367 34.195 -391.279 0.0 106.682 0.0 38.5332 44.5179 25.8947 0.0 0.0 0.0 0.0 0.0 0.0 116.0219 -1.4425 -8.21037 44.8909 33.5386 -394.737 0.0 119.664 0.0 -74.3807 26.6091 -34.6368 0.0 0.0 0.0 0.0 0.0 0.0 -32.369 -63.9576 -32.87 0.0 125.626 0.0 -8.67087 -23.9999 -10.705 0.0 -29.7743 0.0 0.581762 -6.09002 350.756 0.0 111.842 0.0 10.2406 -17.0951 13.4384 0.0 -60.1744 0.0 
  -2.6694500732421873 0.11472100257873535 5.18469970703125 107.684 83.7111 270.375 5.53784 -26.127 -0.722507 0.918282 5.05079 -3.68911 -44.1658 63.7702 41.7952 -67.434 -55.2885 -48.6077 -109.7881 -0.105913 3.77743 38.3922 34.0304 -391.041 0.0 106.308 0.0 34.6805 43.9008 33.7047 0.0 0.0 0.0 0.0 0.0 0.0 116.0566 -1.47545 -8.0138 44.6982 33.0604 -394.587 0.0 119.74 0.0 -74.0053 26.0788 -33.7544 0.0 0.0 0.0 0.0 0.0 0.0 -31.8921 -63.9036 -32.4139 0.0 125.758 0.0 -8.59593 -23.7261 -10.7874 0.0 -30.1999 0.0 0.628671 -5.85165 350.744 0.0 111.756 0.0 9.93416 -17.198502 12.8759 0.0 -60.0732 0.0 
  -2.6713800048828125 0.10104599952697754 5.18385986328125 106.577 83.5717 271.325 5.42899 -26.3363 -0.752255 1.06559 4.77541 -3.581 -44.4739 63.8835 42.121 -67.2818 -55.3564 -48.3344 -109.7849 -0.0674676 3.78716 38.3373 33.9521 -390.447 0.0 105.709 0.0 36.1551 43.7158 32.3254 0.0 0.0 0.0 0.0 0.0 0.0 116.3548 -1.87096 -9.07846 43.7224 33.9409 -393.604 0.0 119.492 0.0 -74.1215 25.7018 -33.9033 0.0 0.0 0.0 0.0 0.0 0.0 -31.5398 -63.8213 -31.9875 0.0 125.859 0.0 -8.67729 -23.4925 -10.9655 0.0 -30.5515 0.0 0.638531 -5.55008 350.763 0.0 111.672 0.0 10.3233 -17.3992 12.7149 0.0 -59.6404 0.0 
